# xmcd
#
# Track frame offsets:
#	150
#	18671
#	38633
#	54330
#	70898
#	88179
#	101350
#	118781
#	138931
#	153488
#	168442
#	185497
#
# Disc length: 2699 seconds
#
# Revision: 0
# Processed by: cddbd v1.5.2PL0 Copyright (c) Steve Scherf et al.
# Submitted via: audiograbber 1.83.01
#
DISCID=9c0a890c
DTITLE=Terry Hoax - Band Of The Day
DYEAR=2009
DGENRE=Rock
TTITLE0=Band Of The Day
TTITLE1=Some Kind Of Paradise
TTITLE2=Nothing Less Than Everything
TTITLE3=Good To Be Bad
TTITLE4=Where Does All That Anger Come From?
TTITLE5=Stop This
TTITLE6=Aubrey
TTITLE7=Don't Talk It Over
TTITLE8=Shake Your Head
TTITLE9=The Way She Dances
TTITLE10=Love Madness
TTITLE11=New Beginning
EXTD=
EXTT0=
EXTT1=
EXTT2=
EXTT3=
EXTT4=
EXTT5=
EXTT6=
EXTT7=
EXTT8=
EXTT9=
EXTT10=
EXTT11=
PLAYORDER=
